<svg xmlns="http://www.w3.org/2000/svg" width="56.667" height="56.667" viewBox="0 0 56.667 56.667">
  <path id="linkedin" d="M55.515,4H9.152A5.15,5.15,0,0,0,4,9.152V55.515a5.15,5.15,0,0,0,5.152,5.152H55.515a5.15,5.15,0,0,0,5.152-5.152V9.152A5.15,5.15,0,0,0,55.515,4Zm-33.6,46.364h-7.6V25.915h7.6ZM18.035,22.419a4.429,4.429,0,1,1,4.428-4.43A4.43,4.43,0,0,1,18.035,22.419ZM50.374,50.364H42.781V38.474c0-2.836-.052-6.483-3.949-6.483-3.954,0-4.562,3.088-4.562,6.277v12.1H26.677V25.915h7.289v3.341h.1a7.985,7.985,0,0,1,7.189-3.949c7.694,0,9.116,5.064,9.116,11.648V50.364Z" transform="translate(-4 -4)" fill="#4c708b"/>
</svg>
