<svg xmlns="http://www.w3.org/2000/svg" width="45" height="140" viewBox="0 0 45 140">
  <g id="グループ_14383" data-name="グループ 14383" transform="translate(-664 1359.604) rotate(-90)">
    <rect id="長方形_12005" data-name="長方形 12005" width="116" height="45" transform="translate(1243.604 664)" fill="#00345b"/>
    <path id="パス_56958" data-name="パス 56958" d="M-34.65,0h2.685V-8.94h3.03v-2.235h-8.73V-8.94h3.015ZM-23.1.21c3.045,0,5.115-2.19,5.115-5.85s-2.07-5.73-5.115-5.73-5.115,2.07-5.115,5.73S-26.145.21-23.1.21Zm0-2.31c-1.47,0-2.37-1.38-2.37-3.54s.9-3.435,2.37-3.435S-20.715-7.8-20.715-5.64-21.63-2.1-23.1-2.1ZM-15.915,0h2.685V-3.7h1.3c2.37,0,4.41-1.17,4.41-3.825,0-2.76-2.025-3.645-4.47-3.645h-3.93Zm2.685-5.82V-9.045h1.095c1.29,0,2.01.39,2.01,1.515,0,1.095-.63,1.71-1.935,1.71Zm6.735,1.155,2.22,2.28c.285-.435.63-1.02.99-1.56C-2.7-4.755-1.74-6.15-1.2-6.84c.39-.495.675-.555,1.14-.045.7.81,1.815,2.235,2.715,3.33a46.5,46.5,0,0,0,3.18,3.48l1.89-2.19C6.255-3.585,5.085-4.8,4.1-5.88,3.255-6.81,2.04-8.385.945-9.42-.21-10.515-1.29-10.44-2.43-9.15c-.96,1.1-2.055,2.55-2.7,3.21A11.884,11.884,0,0,1-6.495-4.665Zm28.605-7.41H9.27v1.95H22.11Zm-7.17,9.45c-.51,1.05-1.53,1.755-3.7,2.25a11.864,11.864,0,0,0,.7-2.25Zm4.38-5.37v.81H12.33v-.81Zm-7.11,3.51q.068-.562.09-1.08h3.15c-.015.39-.045.75-.075,1.08Zm9.9,1.86v-1.86h-4.5c.045-.345.06-.7.075-1.08h3.78v-4.05H10.14V-6.9c0,2.04-.135,5.025-1.815,7.035A8.858,8.858,0,0,1,10.26,1.3a7.517,7.517,0,0,0,.945-1.62A5.549,5.549,0,0,1,12.33,1.44c2.31-.57,3.6-1.425,4.35-2.61C17.67.24,19.1,1.05,21.465,1.395A7.425,7.425,0,0,1,22.755-.57c-2.4-.18-3.87-.825-4.695-2.055Zm7.035.75c0-.3.285-.6.78-.6.63,0,1.08.54,1.155,1.365-.21.015-.435.03-.675.03C29.64-1.08,29.145-1.41,29.145-1.875Zm-2.9-9.765.075,2.355c.36-.06.9-.1,1.35-.135.81-.06,2.355-.12,3.1-.135-.72.645-2.115,1.725-2.955,2.415-.885.735-2.64,2.22-3.6,2.97l1.65,1.71c1.44-1.755,3.015-3.075,5.2-3.075,1.65,0,2.97.81,2.97,2.1a1.959,1.959,0,0,1-.885,1.725A3.062,3.062,0,0,0,29.91-4.2,2.741,2.741,0,0,0,27-1.65C27,0,28.755.99,30.87.99c3.885,0,5.58-2.055,5.58-4.395,0-2.265-2.025-3.915-4.6-3.915a5.14,5.14,0,0,0-1.05.09c.825-.63,2.145-1.71,2.985-2.28.375-.27.765-.495,1.155-.735l-1.125-1.6a7.914,7.914,0,0,1-1.335.18c-.885.075-3.885.12-4.695.12A12.708,12.708,0,0,1,26.25-11.64Z" transform="translate(1301.604 692)" fill="#fff"/>
    <rect id="長方形_12075" data-name="長方形 12075" width="12" height="45" transform="translate(1243.604 709) rotate(180)" fill="#7f99ac"/>
    <rect id="長方形_12076" data-name="長方形 12076" width="12" height="45" transform="translate(1231.604 709) rotate(180)" fill="#4c708b"/>
  </g>
</svg>
