<svg xmlns="http://www.w3.org/2000/svg" width="188.079" height="188.078" viewBox="0 0 188.079 188.078">
  <g id="グループ_16178" data-name="グループ 16178" transform="translate(-10 -1089)">
    <g id="グループ_15687" data-name="グループ 15687" transform="translate(198.078 1277.078) rotate(180)" opacity="0.2">
      <path id="パス_57017" data-name="パス 57017" d="M188.079,56.374V0H0V56.374L94.039,66.4Z" fill="#7f99ac"/>
    </g>
    <g id="_1" data-name=" 1" transform="translate(20.285 1231.4)" opacity="0.2" style="isolation: isolate">
      <g id="グループ_15688" data-name="グループ 15688" style="isolation: isolate">
        <path id="パス_57018" data-name="パス 57018" d="M374.787,1448.893h7.737v-21.85H376v-4.428a23.348,23.348,0,0,0,8.37-3.017h5.3v29.3h6.765v5.791H374.787Z" transform="translate(-374.787 -1419.597)" fill="#fff"/>
      </g>
    </g>
    <g id="グループ_16172" data-name="グループ 16172" transform="translate(56.689 1229.505)">
      <g id="グループ_15691" data-name="グループ 15691">
        <g id="グループ_15689" data-name="グループ 15689" transform="translate(12.998 18.804)" style="isolation: isolate">
          <path id="パス_57019" data-name="パス 57019" d="M487.445,1457.458a8.987,8.987,0,0,1-1.484,2.988,8.551,8.551,0,0,0,2.987,1.4,6.76,6.76,0,0,0-1.181,1.646,9.228,9.228,0,0,1-3.077-1.754,10.671,10.671,0,0,1-3.257,1.754,7.639,7.639,0,0,0-1.181-1.5l-.68.877c-.43-.34-1.217-.895-1.914-1.36v1.843H475.8v-1.7a11.194,11.194,0,0,1-2.38,1.79,8.313,8.313,0,0,0-1.181-1.324,10.457,10.457,0,0,0,2.809-1.735h-2.057V1456.9H475.8v-.608h-3.2v-1.413h3.2v-.912h1.861v.912h3.166v1.413h-3.166v.608h2.916v.984a8.8,8.8,0,0,0,2.183-3.9l1.9.429c-.143.465-.3.912-.483,1.36h4.455v1.682Zm-5.886,11.218h7.157v1.735H472.452v-1.735h2.612v-2.684h2.04v2.684h2.38V1465.4h-5.976v-1.682h14.1v1.682h-6.048v.841h4.616v1.557h-4.616Zm-6.924-9.554H475.8v-.966h-1.163Zm3.024-.966v.966h1.163v-.966Zm2.63,3.793a8.97,8.97,0,0,0,3.131-1.521,10.189,10.189,0,0,1-1.038-1.557,8.919,8.919,0,0,1-.806.841,10.088,10.088,0,0,0-1-1.145v1.807h-2.237c.77.393,1.9.966,2.255,1.181Zm3.149-4.491a7.86,7.86,0,0,0,1.145,1.736,6.034,6.034,0,0,0,.841-1.736Z" transform="translate(-472.237 -1453.969)" fill="#fff"/>
          <path id="パス_57020" data-name="パス 57020" d="M517.928,1461.842c-.823.7-2.487,2.236-2.916,2.7a1.972,1.972,0,0,1,.68.125,1.7,1.7,0,0,1,1.074,1.217c.161.483.358,1.163.519,1.628a1.137,1.137,0,0,0,1.253.841,18.448,18.448,0,0,0,3.507-.322l-.143,2.344a26.146,26.146,0,0,1-3.507.268c-1.7,0-2.613-.376-3.059-1.538-.179-.537-.394-1.378-.519-1.825-.2-.626-.591-.859-.948-.859a1.9,1.9,0,0,0-1.181.715c-.608.626-1.951,2.094-3.185,3.668l-2.111-1.484c.322-.269.751-.644,1.234-1.11.913-.93,4.58-4.58,6.209-6.3-1.252.036-3.4.233-4.419.322-.627.054-1.163.143-1.539.2l-.214-2.469a15.946,15.946,0,0,0,1.718.054c.841,0,4.9-.179,6.388-.376a5.714,5.714,0,0,0,1.02-.2l1.306,1.485C518.627,1461.251,518.25,1461.573,517.928,1461.842Zm.536-5.726-.286,2.093c-1.879-.143-5.225-.537-7.354-.895l.34-2.075C513.169,1455.615,516.6,1455.991,518.465,1456.116Z" transform="translate(-489.569 -1454.595)" fill="#fff"/>
          <path id="パス_57021" data-name="パス 57021" d="M542.861,1456.8c.948,0,4.777-.072,5.8-.162a7.833,7.833,0,0,0,1.36-.2l1.163,1.592c-.411.268-.84.519-1.252.823-.966.68-2.845,2.254-3.972,3.149a6.992,6.992,0,0,1,1.7-.2c3.042,0,5.35,1.9,5.35,4.509,0,2.827-2.146,5.063-6.476,5.063-2.488,0-4.366-1.145-4.366-2.934a3,3,0,0,1,3.2-2.791,3.58,3.58,0,0,1,3.811,3.06,2.592,2.592,0,0,0,1.485-2.433c0-1.611-1.611-2.7-3.722-2.7-2.738,0-4.527,1.449-6.441,3.632l-1.628-1.682c1.27-1.019,3.435-2.845,4.491-3.722,1-.823,2.863-2.325,3.739-3.095-.912.018-3.381.125-4.33.179-.483.036-1.055.089-1.467.143l-.072-2.326A12.514,12.514,0,0,0,542.861,1456.8Zm3.221,12.542a9.285,9.285,0,0,0,1.038-.054c-.107-1.163-.77-1.914-1.735-1.914-.68,0-1.11.412-1.11.858C544.275,1468.893,545.009,1469.34,546.082,1469.34Z" transform="translate(-505.091 -1455.187)" fill="#fff"/>
        </g>
        <g id="マインドフルネス" style="isolation: isolate">
          <g id="グループ_15690" data-name="グループ 15690" style="isolation: isolate">
            <path id="パス_57022" data-name="パス 57022" d="M454.966,1420.22a16.805,16.805,0,0,1-3.442,3.947c.575.575,1.171,1.231,1.564,1.706l-1.181.939a26.392,26.392,0,0,0-1.928-2.18,21.5,21.5,0,0,0-2.221-1.938l1.07-.858c.4.3,1.07.848,1.706,1.4a11.213,11.213,0,0,0,2.564-2.907h-5.34c-.4,0-.949.051-1.161.071v-1.413a9.76,9.76,0,0,0,1.161.091h5.6a3.251,3.251,0,0,0,.939-.111l1.009.828A3.554,3.554,0,0,0,454.966,1420.22Z" transform="translate(-446.598 -1417.908)" fill="#fff"/>
            <path id="パス_57023" data-name="パス 57023" d="M469.306,1419.449a12.935,12.935,0,0,0,2.847-2.453l1.09,1.04a18.429,18.429,0,0,1-2.715,2.19v4.078a6.917,6.917,0,0,0,.091,1.323h-1.6a11.265,11.265,0,0,0,.071-1.323v-3.23a20.2,20.2,0,0,1-3.564,1.453l-.636-1.271A16.238,16.238,0,0,0,469.306,1419.449Z" transform="translate(-455.619 -1416.936)" fill="#fff"/>
            <path id="パス_57024" data-name="パス 57024" d="M487.336,1423.413a9.5,9.5,0,0,0,3.674-3.927l.787,1.423a10.737,10.737,0,0,1-3.735,3.735,10.925,10.925,0,0,1-3.745,1.423l-.848-1.332A10.411,10.411,0,0,0,487.336,1423.413Zm0-3.261-1.03,1.051a20.972,20.972,0,0,0-2.524-2.181l.949-1.009A20.431,20.431,0,0,1,487.336,1420.152Z" transform="translate(-464.777 -1417.437)" fill="#fff"/>
            <path id="パス_57025" data-name="パス 57025" d="M504.237,1418.679a7.2,7.2,0,0,0-.1-1.222h1.575a10.939,10.939,0,0,0-.091,1.222v1.474a34.988,34.988,0,0,1,4.219,1.575l-.565,1.4a27.091,27.091,0,0,0-3.654-1.5v2.856c0,.283.05.99.1,1.4h-1.585a10.968,10.968,0,0,0,.1-1.4Zm4.946.636-.879.394a8.627,8.627,0,0,0-.888-1.565l.848-.353C508.547,1418.215,508.951,1418.861,509.183,1419.315Zm1.353-.585-.848.414a9.4,9.4,0,0,0-.939-1.514l.839-.394A13.376,13.376,0,0,1,510.536,1418.73Z" transform="translate(-474.967 -1417.054)" fill="#fff"/>
            <path id="パス_57026" data-name="パス 57026" d="M526.586,1419.971a10.377,10.377,0,0,1-1.514,3.674,8.075,8.075,0,0,1-4.058,2.787l-1.1-1.2a6.718,6.718,0,0,0,3.958-2.372,6.4,6.4,0,0,0,1.181-2.847h-4.7c-.454,0-.939.02-1.2.04v-1.424c.3.031.878.081,1.211.081h4.663a3.366,3.366,0,0,0,.8-.081l.989.636A4.443,4.443,0,0,0,526.586,1419.971Z" transform="translate(-482.368 -1417.741)" fill="#fff"/>
            <path id="パス_57027" data-name="パス 57027" d="M537.506,1422.849a17.413,17.413,0,0,0,.293-4,3.839,3.839,0,0,0-.091-.929h1.484a6.644,6.644,0,0,0-.07.918,22.3,22.3,0,0,1-.3,4.341,5.923,5.923,0,0,1-1.8,2.9l-1.231-.818A4.767,4.767,0,0,0,537.506,1422.849Zm3.039,1.816v-5.885a4.463,4.463,0,0,0-.081-.868h1.5a5.049,5.049,0,0,0-.071.878v5.28a6.394,6.394,0,0,0,2.493-2.13l.778,1.11a11.116,11.116,0,0,1-3.422,2.756,2.175,2.175,0,0,0-.434.3l-.848-.7A3.816,3.816,0,0,0,540.545,1424.665Z" transform="translate(-490.574 -1417.387)" fill="#fff"/>
            <path id="パス_57028" data-name="パス 57028" d="M560.888,1417.806v.525H562.1a3.011,3.011,0,0,0,.837-.1l.838.818c-.262.252-.565.6-.787.838a15.26,15.26,0,0,1-2.12,1.979c0,.807-.01,1.908-.01,2.544,0,.4.04.979.07,1.292h-1.454a11.59,11.59,0,0,0,.081-1.292v-1.727a17.658,17.658,0,0,1-3.1,1.242l-.778-1.191a12.547,12.547,0,0,0,4.119-1.686,6.665,6.665,0,0,0,1.7-1.5h-3.654c-.363,0-1,.01-1.312.041v-1.323a9.455,9.455,0,0,0,1.292.071h1.747v-.525a6.578,6.578,0,0,0-.06-.929h1.443A8.356,8.356,0,0,0,560.888,1417.806Zm.616,4.613.838-.969a22.836,22.836,0,0,1,2.423,1.463l-.848,1.111A15.9,15.9,0,0,0,561.5,1422.419Z" transform="translate(-500.38 -1416.877)" fill="#fff"/>
            <path id="パス_57029" data-name="パス 57029" d="M582.409,1419.672a14.83,14.83,0,0,1-1.585,2.777,28.265,28.265,0,0,1,2.817,2.887l-1.151,1a22.933,22.933,0,0,0-2.544-2.857,13.307,13.307,0,0,1-3.8,2.836l-1.04-1.09a11.314,11.314,0,0,0,4.139-2.9,7.812,7.812,0,0,0,1.5-2.473h-3.422c-.424,0-.979.061-1.191.071v-1.433a11.361,11.361,0,0,0,1.191.071h3.564a3.625,3.625,0,0,0,1.039-.131l.828.616A4.841,4.841,0,0,0,582.409,1419.672Z" transform="translate(-509.961 -1417.643)" fill="#fff"/>
          </g>
        </g>
      </g>
      <g id="グループ_15692" data-name="グループ 15692" transform="translate(92.683 0.319)">
        <path id="パス_57030" data-name="パス 57030" d="M662.525,1449.159a25.622,25.622,0,0,1-1.681-2.943s.195-.25,0-1.094c-.253-1.093-1.345-1.009-1.6-1.261s-2.438-4.246-2.606-4.709-2.019-5.717-2.019-5.717c-.621-2.732-1.766-3.867-3.279-4.2s-2.312-.252-2.985-.841c-.42-.367-.405-.64-.405-1.748a4.8,4.8,0,0,0,.784-1.027,6.631,6.631,0,0,0,.563-1.664c.379-.152.383-.341.547-.943.227-.833.21-1.4-.395-1.4.143-2.716-1.22-4.1-3.406-4.1s-3.548,1.385-3.405,4.1c-.605,0-.622.571-.395,1.4.164.6.168.791.546.943a6.6,6.6,0,0,0,.564,1.665,4.8,4.8,0,0,0,.784,1.026c0,1.108.014,1.381-.407,1.748-.671.589-1.485.508-2.984.841s-2.657,1.472-3.279,4.2c0,0-1.85,5.254-2.018,5.717s-2.355,4.457-2.606,4.709-1.345.168-1.6,1.261c-.194.844,0,1.094,0,1.094a25.529,25.529,0,0,1-1.682,2.943c-.5.588.421,1.008,1.009.251a.919.919,0,0,0,.566.212c-2.051,2.271-.882,5.23,2.293,5.086,2.6-.119,12.611-1.935,12.611-1.935s10.008,1.816,12.611,1.935c3.175.144,4.345-2.815,2.292-5.086a.919.919,0,0,0,.567-.212C662.105,1450.167,663.03,1449.747,662.525,1449.159ZM640.75,1445.4a70.456,70.456,0,0,0-6.99,2.488c.553-1.029,1.189-2.429,1.189-2.429l2.691-3.867,2.144-4.667s.673,2.523.883,2.9A50.516,50.516,0,0,1,640.75,1445.4Zm10.594,0a50.778,50.778,0,0,1,.084-5.574c.21-.378.883-2.9.883-2.9l2.144,4.667,2.69,3.867s.637,1.4,1.19,2.429A70.5,70.5,0,0,0,651.344,1445.4Z" transform="translate(-629.422 -1417.504)" fill="#fff"/>
      </g>
    </g>
    <g id="グループ_16176" data-name="グループ 16176">
      <path id="パス_57031" data-name="パス 57031" d="M93.932,10.019,0,0V61.33L94.039,71.36,188.079,61.33V0L94.039,10.031Z" transform="translate(198.078 1218.666) rotate(180)" fill="#4c708b"/>
      <g id="_1-2" data-name=" 1" transform="translate(18.873 1166.676)" opacity="0.2" style="isolation: isolate">
        <g id="グループ_15694" data-name="グループ 15694" style="isolation: isolate">
          <path id="パス_57032" data-name="パス 57032" d="M372.344,1577.557c9.392-8.954,15.573-15.086,15.573-20.293,0-3.553-1.947-5.694-5.4-5.694-2.628,0-4.769,1.752-6.618,3.747L372,1551.424c3.309-3.552,6.521-5.5,11.436-5.5,6.813,0,11.339,4.331,11.339,10.95,0,6.131-5.645,12.458-12.068,19.173,1.8-.195,4.185-.389,5.888-.389h7.884v6.034H372.344Z" transform="translate(-372.003 -1545.925)" fill="#fff"/>
        </g>
      </g>
      <g id="グループ_16173" data-name="グループ 16173" transform="translate(47.182 1165.955)">
        <g id="グループ_15697" data-name="グループ 15697" transform="translate(0 0.802)">
          <g id="グループ_15695" data-name="グループ 15695" transform="translate(22.299 16.4)" style="isolation: isolate">
            <path id="パス_57033" data-name="パス 57033" d="M483.14,1591.388c-.77.2-1.575.376-2.344.555v3.238h-1.843v-2.827l-.519.125.107,1.2c-2.039.412-4.168.805-5.851,1.145l-.429-1.842c.68-.107,1.5-.233,2.415-.394v-4.849h-2.129v-1.753h2.129V1584.7h-1.485v-.555l-.107.107a5.976,5.976,0,0,0-1.253-1.342,11.167,11.167,0,0,0,2.97-4.383h1.557a16.658,16.658,0,0,1,2.595,3.042v-1.628l.751.268a10.144,10.144,0,0,0,1.825-1.771l1.646,1.378a17.142,17.142,0,0,1-2.38,1.664v1.45h1.736v1.627a4.8,4.8,0,0,0,.644-2.737v-2.469h4.24v4.186a1.943,1.943,0,0,0,.018.537.115.115,0,0,0,.126.089h.179a.2.2,0,0,0,.143-.053.754.754,0,0,0,.107-.358c.035-.233.054-.716.071-1.324a3.667,3.667,0,0,0,1.2.644,9.272,9.272,0,0,1-.215,1.7,1.193,1.193,0,0,1-.483.644,1.527,1.527,0,0,1-.77.179h-.7a1.422,1.422,0,0,1-1-.376c-.25-.286-.34-.626-.34-1.682v-2.451h-.984v.787a5.775,5.775,0,0,1-1.413,4.294,6.259,6.259,0,0,0-1.36-.966,2.7,2.7,0,0,0,.376-.412H480.8v1.7h1.736v1.86H480.8v1.754l2.165-.429Zm-9.215-2.863a15.005,15.005,0,0,1,.573,3.1l-1.306.34a15.733,15.733,0,0,0-.5-3.131Zm3.65-5.546a17.657,17.657,0,0,0-1.664-2.4,18.424,18.424,0,0,1-1.628,2.4Zm1.378,7.479v-8.677l-1.038,1.2h.072v1.718h-1.611v1.288h1.843v1.753h-1.843v4.563c.573-.108,1.181-.214,1.754-.322l-.233-1.324Zm-.608-1.807c-.25,1.02-.5,2.129-.734,2.88l-1.162-.286a25.27,25.27,0,0,0,.591-2.9Zm10.27-1.932a13.57,13.57,0,0,1-1.933,5.135,6.969,6.969,0,0,0,2.487,1.807,6.763,6.763,0,0,0-1.252,1.593,7.8,7.8,0,0,1-2.469-1.9,9.246,9.246,0,0,1-2.755,1.86,7.5,7.5,0,0,0-1.2-1.575,8.056,8.056,0,0,0,2.845-1.843,14.358,14.358,0,0,1-1.324-3.292l1.717-.394a10.213,10.213,0,0,0,.823,2.094,9.031,9.031,0,0,0,.877-2.111h-3.453v-1.754h4.169l.322-.054Z" transform="translate(-471.832 -1578.434)" fill="#fff"/>
            <path id="パス_57034" data-name="パス 57034" d="M518.334,1586.448c-.823.7-2.487,2.236-2.916,2.7a1.973,1.973,0,0,1,.68.125,1.7,1.7,0,0,1,1.074,1.217c.161.483.358,1.163.519,1.628a1.137,1.137,0,0,0,1.253.841,18.444,18.444,0,0,0,3.507-.322l-.143,2.344a26.14,26.14,0,0,1-3.507.268c-1.7,0-2.612-.376-3.059-1.539-.179-.537-.394-1.378-.519-1.825-.2-.626-.591-.859-.948-.859a1.9,1.9,0,0,0-1.181.715c-.608.626-1.95,2.094-3.185,3.668l-2.111-1.484c.322-.269.751-.644,1.234-1.11.913-.93,4.581-4.58,6.209-6.3-1.253.036-3.4.233-4.42.322-.627.054-1.163.143-1.539.2l-.215-2.469a15.941,15.941,0,0,0,1.718.054c.841,0,4.9-.179,6.388-.376a5.714,5.714,0,0,0,1.02-.2l1.306,1.485C519.033,1585.858,518.657,1586.18,518.334,1586.448Zm.537-5.725-.286,2.093c-1.879-.143-5.225-.537-7.354-.895l.34-2.075C513.575,1580.222,517.011,1580.6,518.871,1580.723Z" transform="translate(-489.564 -1579.13)" fill="#fff"/>
            <path id="パス_57035" data-name="パス 57035" d="M543.267,1581.4c.948,0,4.777-.072,5.8-.162a7.784,7.784,0,0,0,1.36-.2l1.163,1.592c-.412.268-.841.519-1.253.823-.966.68-2.844,2.254-3.972,3.149a7.006,7.006,0,0,1,1.7-.2c3.042,0,5.35,1.9,5.35,4.509,0,2.827-2.146,5.063-6.476,5.063-2.487,0-4.366-1.145-4.366-2.934a3,3,0,0,1,3.2-2.791,3.58,3.58,0,0,1,3.811,3.059,2.592,2.592,0,0,0,1.485-2.433c0-1.611-1.611-2.7-3.721-2.7-2.738,0-4.527,1.449-6.441,3.632l-1.628-1.682c1.27-1.02,3.436-2.844,4.492-3.722,1-.823,2.862-2.326,3.739-3.095-.912.018-3.382.125-4.33.178-.483.036-1.055.09-1.468.143l-.071-2.326A12.523,12.523,0,0,0,543.267,1581.4Zm3.221,12.542a9.282,9.282,0,0,0,1.038-.054c-.107-1.163-.769-1.914-1.735-1.914-.68,0-1.109.411-1.109.858C544.681,1593.5,545.415,1593.947,546.488,1593.947Z" transform="translate(-505.086 -1579.722)" fill="#fff"/>
          </g>
          <g id="Visual_Thinking_Strategy" data-name="Visual Thinking Strategy" style="isolation: isolate">
            <g id="グループ_15696" data-name="グループ 15696" style="isolation: isolate">
              <path id="パス_57036" data-name="パス 57036" d="M427.845,1547.16h1.209l.763,2.815c.179.639.3,1.217.484,1.863h.039c.187-.647.312-1.224.491-1.863l.749-2.815h1.17l-1.762,5.778h-1.38Z" transform="translate(-427.845 -1546.615)" fill="#fff"/>
              <path id="パス_57037" data-name="パス 57037" d="M438.459,1546.708a.668.668,0,1,1,.671.631A.615.615,0,0,1,438.459,1546.708Zm.094,1.333H439.7v4.366h-1.146Z" transform="translate(-433.078 -1546.084)" fill="#fff"/>
              <path id="パス_57038" data-name="パス 57038" d="M442.505,1553.7l.523-.717a1.892,1.892,0,0,0,1.169.476c.437,0,.632-.187.632-.46,0-.327-.453-.475-.913-.655-.554-.211-1.17-.546-1.17-1.278,0-.78.632-1.333,1.629-1.333a2.422,2.422,0,0,1,1.482.538l-.514.694a1.624,1.624,0,0,0-.936-.374c-.4,0-.585.171-.585.421,0,.319.405.437.865.608.577.218,1.217.507,1.217,1.318,0,.764-.6,1.38-1.739,1.38A2.768,2.768,0,0,1,442.505,1553.7Z" transform="translate(-435.073 -1547.881)" fill="#fff"/>
              <path id="パス_57039" data-name="パス 57039" d="M450.844,1552.673v-2.729h1.146v2.581c0,.671.187.912.608.912a1.052,1.052,0,0,0,.889-.546v-2.948h1.146v4.366H453.7l-.086-.624h-.031a1.751,1.751,0,0,1-1.388.733C451.25,1554.419,450.844,1553.765,450.844,1552.673Z" transform="translate(-439.185 -1547.987)" fill="#fff"/>
              <path id="パス_57040" data-name="パス 57040" d="M460.305,1553.019c0-.935.756-1.427,2.518-1.614-.023-.429-.21-.756-.748-.756a2.463,2.463,0,0,0-1.2.413l-.414-.756a3.488,3.488,0,0,1,1.825-.577c1.107,0,1.676.663,1.676,1.926v2.55h-.936l-.078-.468h-.031a2.054,2.054,0,0,1-1.318.577A1.24,1.24,0,0,1,460.305,1553.019Zm2.518-.031v-.881c-1.068.132-1.427.429-1.427.819,0,.343.242.491.577.491A1.185,1.185,0,0,0,462.823,1552.988Z" transform="translate(-443.849 -1547.881)" fill="#fff"/>
              <path id="パス_57041" data-name="パス 57041" d="M469.827,1551.281v-5h1.147v5.045c0,.264.117.35.226.35a.665.665,0,0,0,.156-.015l.14.85a1.536,1.536,0,0,1-.593.1C470.108,1552.615,469.827,1552.093,469.827,1551.281Z" transform="translate(-448.544 -1546.183)" fill="#fff"/>
              <path id="パス_57042" data-name="パス 57042" d="M479.033,1548.127h-1.622v-.967h4.414v.967h-1.637v4.811h-1.155Z" transform="translate(-452.284 -1546.615)" fill="#fff"/>
              <path id="パス_57043" data-name="パス 57043" d="M487.78,1546.284h1.147v1.567l-.055.819a1.987,1.987,0,0,1,1.372-.639c.943,0,1.349.655,1.349,1.754v2.721h-1.146v-2.581c0-.678-.187-.912-.616-.912a1.225,1.225,0,0,0-.9.491v3H487.78Z" transform="translate(-457.396 -1546.183)" fill="#fff"/>
              <path id="パス_57044" data-name="パス 57044" d="M497.441,1546.708a.668.668,0,1,1,.671.631A.615.615,0,0,1,497.441,1546.708Zm.094,1.333h1.147v4.366h-1.147Z" transform="translate(-462.159 -1546.084)" fill="#fff"/>
              <path id="パス_57045" data-name="パス 57045" d="M502.3,1549.838h.935l.086.577h.024a2.011,2.011,0,0,1,1.419-.686c.943,0,1.349.654,1.349,1.754v2.721H504.97v-2.581c0-.678-.187-.912-.615-.912a1.227,1.227,0,0,0-.905.491v3H502.3Z" transform="translate(-464.557 -1547.881)" fill="#fff"/>
              <path id="パス_57046" data-name="パス 57046" d="M512.163,1546.284h1.131v3.735h.031l1.489-1.879h1.255l-1.5,1.8,1.637,2.565h-1.24l-1.061-1.809-.615.7v1.107h-1.131Z" transform="translate(-469.418 -1546.183)" fill="#fff"/>
              <path id="パス_57047" data-name="パス 57047" d="M521.286,1546.708a.668.668,0,1,1,.671.631A.615.615,0,0,1,521.286,1546.708Zm.094,1.333h1.146v4.366H521.38Z" transform="translate(-473.916 -1546.084)" fill="#fff"/>
              <path id="パス_57048" data-name="パス 57048" d="M526.147,1549.838h.936l.086.577h.023a2.01,2.01,0,0,1,1.419-.686c.943,0,1.349.654,1.349,1.754v2.721h-1.146v-2.581c0-.678-.187-.912-.616-.912a1.224,1.224,0,0,0-.9.491v3h-1.147Z" transform="translate(-476.313 -1547.881)" fill="#fff"/>
              <path id="パス_57049" data-name="パス 57049" d="M535.44,1554.977a1.06,1.06,0,0,1,.624-.9v-.039a.828.828,0,0,1-.4-.733,1.071,1.071,0,0,1,.491-.819v-.031a1.43,1.43,0,0,1-.585-1.146,1.608,1.608,0,0,1,1.763-1.575,2.057,2.057,0,0,1,.655.109h1.575v.842h-.741a1.151,1.151,0,0,1,.2.663,1.491,1.491,0,0,1-1.684,1.481,1.855,1.855,0,0,1-.562-.1.444.444,0,0,0-.187.375c0,.234.171.359.686.359h.741c1.052,0,1.629.327,1.629,1.091,0,.881-.92,1.552-2.378,1.552C536.235,1556.1,535.44,1555.748,535.44,1554.977Zm3.1-.234c0-.312-.258-.39-.725-.39h-.53a2.459,2.459,0,0,1-.608-.062.645.645,0,0,0-.281.507c0,.366.406.577,1.037.577C538.091,1555.374,538.544,1555.086,538.544,1554.743Zm-.523-3.439a.694.694,0,1,0-1.372,0c0,.522.3.811.686.811S538.021,1551.826,538.021,1551.3Z" transform="translate(-480.895 -1547.881)" fill="#fff"/>
              <path id="パス_57050" data-name="パス 57050" d="M548.116,1552.107l.663-.8a2.271,2.271,0,0,0,1.466.639c.6,0,.921-.257.921-.662,0-.429-.351-.562-.865-.78l-.773-.328a1.67,1.67,0,0,1-1.169-1.551,1.8,1.8,0,0,1,2-1.669,2.562,2.562,0,0,1,1.809.741l-.586.726a1.838,1.838,0,0,0-1.224-.476c-.507,0-.827.226-.827.608,0,.413.406.561.9.756l.756.32a1.593,1.593,0,0,1,1.162,1.567,1.877,1.877,0,0,1-2.121,1.747A3.078,3.078,0,0,1,548.116,1552.107Z" transform="translate(-487.145 -1546.516)" fill="#fff"/>
              <path id="パス_57051" data-name="パス 57051" d="M557.532,1551.638V1549.7h-.616v-.85l.678-.054.133-1.177h.951v1.177h1.076v.9h-1.076v1.934c0,.5.2.733.593.733a1.266,1.266,0,0,0,.429-.094l.187.835a2.833,2.833,0,0,1-.92.163C557.929,1553.274,557.532,1552.612,557.532,1551.638Z" transform="translate(-491.483 -1546.842)" fill="#fff"/>
              <path id="パス_57052" data-name="パス 57052" d="M564.269,1549.838h.935l.086.771h.023a1.513,1.513,0,0,1,1.24-.88,1.235,1.235,0,0,1,.515.093l-.195.991a1.445,1.445,0,0,0-.46-.07c-.344,0-.756.226-1,.858v2.6h-1.146Z" transform="translate(-495.109 -1547.881)" fill="#fff"/>
              <path id="パス_57053" data-name="パス 57053" d="M570.068,1553.019c0-.935.757-1.427,2.518-1.614-.023-.429-.21-.756-.748-.756a2.465,2.465,0,0,0-1.2.413l-.413-.756a3.488,3.488,0,0,1,1.825-.577c1.107,0,1.676.663,1.676,1.926v2.55h-.935l-.079-.468h-.03a2.054,2.054,0,0,1-1.318.577A1.241,1.241,0,0,1,570.068,1553.019Zm2.518-.031v-.881c-1.068.132-1.427.429-1.427.819,0,.343.241.491.577.491A1.186,1.186,0,0,0,572.587,1552.988Z" transform="translate(-497.968 -1547.881)" fill="#fff"/>
              <path id="パス_57054" data-name="パス 57054" d="M579.023,1551.638V1549.7h-.616v-.85l.678-.054.133-1.177h.951v1.177h1.076v.9h-1.076v1.934c0,.5.2.733.593.733a1.26,1.26,0,0,0,.428-.094l.188.835a2.831,2.831,0,0,1-.92.163C579.42,1553.274,579.023,1552.612,579.023,1551.638Z" transform="translate(-502.08 -1546.842)" fill="#fff"/>
              <path id="パス_57055" data-name="パス 57055" d="M584.93,1552.021a2.139,2.139,0,0,1,2.035-2.292c1.2,0,1.825.88,1.825,2.082a2.163,2.163,0,0,1-.054.53h-2.69a1.147,1.147,0,0,0,1.209,1.092,1.8,1.8,0,0,0,.982-.3l.39.7a2.75,2.75,0,0,1-1.52.483A2.119,2.119,0,0,1,584.93,1552.021Zm2.877-.445c0-.585-.265-.959-.826-.959a.982.982,0,0,0-.951.959Z" transform="translate(-505.296 -1547.881)" fill="#fff"/>
              <path id="パス_57056" data-name="パス 57056" d="M593.653,1554.977a1.06,1.06,0,0,1,.624-.9v-.039a.828.828,0,0,1-.4-.733,1.072,1.072,0,0,1,.491-.819v-.031a1.431,1.431,0,0,1-.584-1.146,1.608,1.608,0,0,1,1.763-1.575,2.057,2.057,0,0,1,.655.109h1.575v.842h-.741a1.15,1.15,0,0,1,.2.663,1.491,1.491,0,0,1-1.684,1.481,1.855,1.855,0,0,1-.562-.1.444.444,0,0,0-.187.375c0,.234.171.359.686.359h.741c1.052,0,1.629.327,1.629,1.091,0,.881-.92,1.552-2.378,1.552C594.448,1556.1,593.653,1555.748,593.653,1554.977Zm3.1-.234c0-.312-.257-.39-.725-.39h-.53a2.456,2.456,0,0,1-.608-.062.645.645,0,0,0-.281.507c0,.366.406.577,1.037.577C596.3,1555.374,596.756,1555.086,596.756,1554.743Zm-.522-3.439a.694.694,0,1,0-1.372,0c0,.522.3.811.686.811S596.234,1551.826,596.234,1551.3Z" transform="translate(-509.597 -1547.881)" fill="#fff"/>
              <path id="パス_57057" data-name="パス 57057" d="M602.817,1555.979l.21-.881a1.179,1.179,0,0,0,.3.054.836.836,0,0,0,.819-.663l.078-.258-1.7-4.288h1.155l.693,2.027c.133.39.242.811.367,1.232h.039c.1-.406.211-.827.312-1.232l.6-2.027h1.1l-1.551,4.5c-.382,1.029-.85,1.622-1.825,1.622A1.831,1.831,0,0,1,602.817,1555.979Z" transform="translate(-513.972 -1547.987)" fill="#fff"/>
            </g>
          </g>
        </g>
        <g id="グループ_15698" data-name="グループ 15698" transform="translate(100.69 0)">
          <path id="パス_57058" data-name="パス 57058" d="M660.2,1569.533c-.129-.435-.387-1.225-.854-2.642-1.513-4.638-9.808-20.9-9.808-20.9a2.564,2.564,0,0,0-2.641-1.466l-10.259,1.257a2.143,2.143,0,0,0-1.628,1.11,30.69,30.69,0,0,0-1.691,3.157,2.481,2.481,0,0,0,.805,3.125c1.014.707,5.846,1.916,6.765,1.513,1.531-.677,2.319-3.736,2.319-3.736l2.318-.4a22.081,22.081,0,0,1,.806,6.264,30.941,30.941,0,0,0,.526,8.257c-.634.219-1.3-.582-2.683-1.879a7.777,7.777,0,0,0-12.063,1.079c-.628-.531-2.969-.81-5.652-1.079v18.526a9.417,9.417,0,0,0,6.6-3.657c2.5.5,6.349.162,9.534-.376a31.828,31.828,0,0,0,9.792-3.268l6.475-2.19A2.134,2.134,0,0,0,660.2,1569.533Z" transform="translate(-626.463 -1544.504)" fill="#fff"/>
        </g>
      </g>
    </g>
    <g id="グループ_16177" data-name="グループ 16177" opacity="0.2">
      <path id="パス_57059" data-name="パス 57059" d="M93.932,10.019,0,0V66.3H188.079V0L94.039,10.031Z" transform="translate(198.078 1155.297) rotate(180)" fill="#00345b"/>
      <g id="_1-3" data-name=" 1" transform="translate(18.752 1101.572)" opacity="0.2" style="isolation: isolate">
        <g id="グループ_15700" data-name="グループ 15700" style="isolation: isolate">
          <path id="パス_57060" data-name="パス 57060" d="M371.763,1703.69l3.358-4.525a11.444,11.444,0,0,0,8.03,3.7c3.65,0,6.132-1.752,6.132-4.77,0-3.406-2.092-5.5-9.927-5.5v-5.159c6.618,0,8.76-2.19,8.76-5.207,0-2.725-1.752-4.331-4.818-4.331-2.579,0-4.672,1.217-6.813,3.212l-3.65-4.38c3.114-2.725,6.57-4.477,10.8-4.477,6.959,0,11.68,3.406,11.68,9.44,0,3.8-2.239,6.424-5.986,7.932v.243c4.039,1.071,7.154,4.039,7.154,8.662,0,6.424-5.791,10.171-12.652,10.171C378.138,1708.7,374.294,1706.561,371.763,1703.69Z" transform="translate(-371.763 -1672.254)" fill="#fff"/>
        </g>
      </g>
      <g id="グループ_16174" data-name="グループ 16174" transform="translate(59.936 1101.254)">
        <g id="グループ_15703" data-name="グループ 15703" transform="translate(0 0)">
          <g id="グループ_15701" data-name="グループ 15701" transform="translate(0 19.329)" style="isolation: isolate">
            <path id="パス_57061" data-name="パス 57061" d="M464.722,1716.021v2.022h3.811v1.95h-3.811v1.932c0,.644.071.751.572.751h1.378c.465,0,.555-.358.626-2.04a5.3,5.3,0,0,0,1.915.841c-.215,2.362-.77,3.078-2.344,3.078h-1.95c-1.932,0-2.416-.627-2.416-2.612v-1.95h-2.361c-.393,1.879-1.575,3.65-4.885,4.759a8.132,8.132,0,0,0-1.359-1.7c2.469-.751,3.543-1.86,3.99-3.059h-3.543v-1.95h3.829v-2.022h-1.5v-.59a14.672,14.672,0,0,1-2.379,1.413,9.222,9.222,0,0,0-1.288-1.611,11.048,11.048,0,0,0,2.97-1.843,19.123,19.123,0,0,0-1.771-1.52l1.342-1.109c.536.376,1.216.894,1.717,1.324a10.042,10.042,0,0,0,1.128-1.61h-3.65v-1.825h4.67l.376-.072,1.413.662a12.437,12.437,0,0,1-2.9,4.759h6.477a16.357,16.357,0,0,1-3.256-5.474l1.914-.537a12.4,12.4,0,0,0,.895,1.914,16.851,16.851,0,0,0,1.592-1.664l1.611,1.145c-.734.662-1.556,1.36-2.29,1.9.25.322.519.626.787.93a14.97,14.97,0,0,0,2.022-1.932l1.556,1.11a23.853,23.853,0,0,1-2.38,1.932,10.941,10.941,0,0,0,2.791,1.647,7.643,7.643,0,0,0-1.467,1.824,12.466,12.466,0,0,1-2.2-1.341v.573Zm-2.219,0h-2.2v2.022h2.2Z" transform="translate(-453.003 -1707.987)" fill="#fff"/>
            <path id="パス_57062" data-name="パス 57062" d="M494.04,1717.38c-.572.179-1.145.358-1.717.519v4.527c0,.984-.162,1.52-.7,1.86a4.638,4.638,0,0,1-2.487.394,7.914,7.914,0,0,0-.537-1.968,14.591,14.591,0,0,0,1.485.018c.214,0,.3-.072.3-.3v-3.954c-.59.179-1.181.34-1.7.483l-.465-2.04c.608-.125,1.36-.322,2.165-.519v-3.1h-1.878v-1.95h1.878v-3.364h1.933v3.364h1.628v1.95h-1.628v2.576l1.449-.411Zm10.968,5.153h-4.563v2.165h-1.95v-2.165h-4.688v-1.717h4.688v-.752h-3.543v-5.726h3.543v-.734H494.72v-1.646h3.775v-1.306h1.95v1.306h3.936v1.646h-3.936v.734h3.7v5.726h-3.7v.752h4.563Zm-8.82-10.914h-1.843v-2.97H504.65v2.97h-1.932v-1.306h-6.531Zm.608,4.938h1.7v-.823h-1.7Zm1.7,2.094v-.823h-1.7v.823Zm1.95-2.916v.823h1.789v-.823Zm1.789,2.093h-1.789v.823h1.789Z" transform="translate(-470.369 -1707.987)" fill="#fff"/>
            <path id="パス_57063" data-name="パス 57063" d="M533.961,1710.938c0,.143,0,.34-.018.554,1.807,0,4.258-.035,5.188-.018l-.018,2.111c-1.073-.054-2.737-.09-5.17-.09,0,.912.018,1.9.018,2.684a4.554,4.554,0,0,1,.644,2.451c0,2.326-1.36,5.3-5.725,6.513l-1.914-1.9a8.032,8.032,0,0,0,4.365-2.039,3.82,3.82,0,0,1-.8.09,3.157,3.157,0,0,1-3.078-3.292,3.374,3.374,0,0,1,3.579-3.346,4.684,4.684,0,0,1,.715.053c0-.393,0-.8-.018-1.2-2.7.036-5.493.143-7.693.269l-.054-2.165c2.039,0,5.3-.071,7.729-.107-.018-.233-.018-.411-.036-.555a12.973,12.973,0,0,0-.179-1.556h2.595C534.051,1709.685,533.979,1710.652,533.961,1710.938Zm-2.989,8.374c.752,0,1.413-.573,1.163-2.147a1.319,1.319,0,0,0-1.163-.626,1.387,1.387,0,0,0,0,2.774Z" transform="translate(-487.997 -1708.683)" fill="#fff"/>
            <path id="パス_57064" data-name="パス 57064" d="M560.436,1710.781c.948,0,4.777-.072,5.8-.162a7.78,7.78,0,0,0,1.36-.2l1.163,1.592c-.412.268-.841.519-1.253.823-.966.68-2.845,2.254-3.972,3.149a7,7,0,0,1,1.7-.2c3.042,0,5.35,1.9,5.35,4.509,0,2.827-2.146,5.063-6.476,5.063-2.487,0-4.366-1.145-4.366-2.934a3,3,0,0,1,3.2-2.791,3.58,3.58,0,0,1,3.811,3.059,2.592,2.592,0,0,0,1.485-2.433c0-1.611-1.611-2.7-3.722-2.7-2.737,0-4.526,1.449-6.441,3.632l-1.628-1.682c1.27-1.02,3.436-2.844,4.492-3.722,1-.823,2.862-2.326,3.739-3.095-.912.018-3.382.125-4.33.178-.483.036-1.055.09-1.467.143l-.072-2.326A12.537,12.537,0,0,0,560.436,1710.781Zm3.221,12.542a9.284,9.284,0,0,0,1.038-.054c-.107-1.163-.77-1.914-1.735-1.914-.68,0-1.11.411-1.11.858C561.85,1722.875,562.584,1723.323,563.657,1723.323Z" transform="translate(-504.006 -1709.188)" fill="#fff"/>
          </g>
          <g id="アイデアソン" transform="translate(6.876)" style="isolation: isolate">
            <g id="グループ_15702" data-name="グループ 15702" style="isolation: isolate">
              <path id="パス_57065" data-name="パス 57065" d="M474.673,1673.47a10.283,10.283,0,0,1-2.423,2.766l-1.05-.838a5.989,5.989,0,0,0,1.857-1.877H467.8c-.424,0-.757.03-1.232.071v-1.4a7.962,7.962,0,0,0,1.232.1h5.441a5.23,5.23,0,0,0,1.03-.09l.8.747A5.019,5.019,0,0,0,474.673,1673.47Zm-6.522,6.875-1.181-.959a3.978,3.978,0,0,0,1.06-.555c1.282-.888,1.524-1.958,1.524-3.614a5.57,5.57,0,0,0-.071-.908h1.464C470.948,1676.812,470.9,1678.871,468.151,1680.345Z" transform="translate(-466.566 -1671.007)" fill="#fff"/>
              <path id="パス_57066" data-name="パス 57066" d="M487.642,1673.466a12.925,12.925,0,0,0,2.846-2.453l1.09,1.04a18.46,18.46,0,0,1-2.715,2.19v4.079a6.913,6.913,0,0,0,.091,1.323h-1.6a11.261,11.261,0,0,0,.071-1.323v-3.23a20.213,20.213,0,0,1-3.564,1.454l-.636-1.271A16.212,16.212,0,0,0,487.642,1673.466Z" transform="translate(-474.782 -1670.428)" fill="#fff"/>
              <path id="パス_57067" data-name="パス 57067" d="M502.238,1673.654h6.612a7.565,7.565,0,0,0,.919-.06v1.313c-.252-.02-.636-.03-.919-.03h-2.433a6.4,6.4,0,0,1-.646,2.594,4.783,4.783,0,0,1-2.029,1.938l-1.181-.858a4.129,4.129,0,0,0,1.828-1.444,4.342,4.342,0,0,0,.626-2.231h-2.776c-.293,0-.687.02-.969.041v-1.323A7.633,7.633,0,0,0,502.238,1673.654Zm1.282-2.563h3.3a7.973,7.973,0,0,0,1.09-.081v1.3c-.343-.02-.737-.031-1.09-.031h-3.3c-.343,0-.777.011-1.08.031v-1.3A7.6,7.6,0,0,0,503.52,1671.091Zm5.794.606-.808.353a12.852,12.852,0,0,0-.8-1.4l.808-.334C508.769,1670.687,509.123,1671.323,509.314,1671.7Zm1.211-.464-.807.353a11.966,11.966,0,0,0-.807-1.393l.8-.333A15.666,15.666,0,0,1,510.525,1671.232Z" transform="translate(-483.676 -1669.859)" fill="#fff"/>
              <path id="パス_57068" data-name="パス 57068" d="M528.805,1673.47a10.28,10.28,0,0,1-2.423,2.766l-1.05-.838a6,6,0,0,0,1.857-1.877h-5.259c-.424,0-.757.03-1.232.071v-1.4a7.963,7.963,0,0,0,1.232.1h5.441a5.232,5.232,0,0,0,1.03-.09l.8.747A5.11,5.11,0,0,0,528.805,1673.47Zm-6.521,6.875-1.181-.959a3.98,3.98,0,0,0,1.06-.555c1.281-.888,1.524-1.958,1.524-3.614a5.57,5.57,0,0,0-.071-.908h1.464C525.081,1676.812,525.03,1678.871,522.284,1680.345Z" transform="translate(-493.256 -1671.007)" fill="#fff"/>
              <path id="パス_57069" data-name="パス 57069" d="M542.075,1675.177l-1.333.757a22.825,22.825,0,0,0-1.706-3.048l1.292-.667C540.833,1672.926,541.7,1674.47,542.075,1675.177Zm1.918,1.262a7.867,7.867,0,0,0,1.191-3.048,5.679,5.679,0,0,0,.131-1.221l1.635.222c-.121.394-.232.889-.3,1.181a10.614,10.614,0,0,1-1.4,3.543,8.535,8.535,0,0,1-3.5,3.1l-1.2-1.03A7.663,7.663,0,0,0,543.992,1676.438Z" transform="translate(-502.297 -1670.998)" fill="#fff"/>
              <path id="パス_57070" data-name="パス 57070" d="M561.039,1677.43a9.5,9.5,0,0,0,3.674-3.927l.788,1.423a10.743,10.743,0,0,1-3.736,3.735,10.936,10.936,0,0,1-3.745,1.423l-.848-1.333A10.406,10.406,0,0,0,561.039,1677.43Zm0-3.26-1.03,1.05a21.019,21.019,0,0,0-2.524-2.181l.949-1.009A20.336,20.336,0,0,1,561.039,1674.169Z" transform="translate(-511.24 -1670.929)" fill="#fff"/>
            </g>
          </g>
        </g>
        <g id="グループ_15704" data-name="グループ 15704" transform="translate(87.348 0.834)">
          <path id="パス_57071" data-name="パス 57071" d="M652.708,1706.276l-4.92-2.011a1.98,1.98,0,0,1-.9-1.014v-1.627c0-.1.011-.21.013-.265.844-1.1,3.595-4.976,3.595-8.7,0-5.139-3.262-8.593-8.118-8.593s-8.117,3.454-8.117,8.593c0,3.72,2.751,7.6,3.573,8.65a1.416,1.416,0,0,1,.034.311v1.617a1.958,1.958,0,0,1-.894,1.021l-4.931,2.017a5.185,5.185,0,0,0-2.925,3.733l-.587,4.9h27.694l-.586-4.892A5.2,5.2,0,0,0,652.708,1706.276Zm-11.8.513a.929.929,0,0,0,.54.84v3.966l-3.689-4.767.306-.126a4.335,4.335,0,0,0,2.474-3.451v-1.627a4.1,4.1,0,0,0-.224-1.339l-.09-.239-.134-.166c-.032-.04-3.159-3.969-3.159-7.216,0-4.365,2.813-5.921,5.445-5.921s5.446,1.555,5.446,5.921c0,3.222-3.029,7.054-3.157,7.215l-.155.2-.07.2a4.094,4.094,0,0,0-.225,1.341v1.626a4.337,4.337,0,0,0,2.479,3.453l.3.124-3.69,4.768v-3.967a.927.927,0,0,0-.389-1.77h-1.08A.93.93,0,0,0,640.909,1706.788Z" transform="translate(-626.896 -1677.7)" fill="#fff"/>
          <path id="パス_57072" data-name="パス 57072" d="M650.712,1691.865a.784.784,0,0,0-.357.085,2.767,2.767,0,0,0-1.17,1.026.794.794,0,0,0-.05.607.781.781,0,0,0,.392.465.8.8,0,0,0,.364.089.78.78,0,0,0,.7-.419,1.51,1.51,0,0,1,.481-.35.794.794,0,0,0-.357-1.5Z" transform="translate(-637.036 -1681.543)" fill="#fff"/>
          <path id="パス_57073" data-name="パス 57073" d="M648.911,1700.249a.794.794,0,0,0-1.587,0,8.43,8.43,0,0,0,1.074,3.62.794.794,0,0,0,1.417-.714A7.069,7.069,0,0,1,648.911,1700.249Z" transform="translate(-636.161 -1685.285)" fill="#fff"/>
          <path id="パス_57074" data-name="パス 57074" d="M654.941,1675.564a.931.931,0,0,0,.929-.929v-2.2a.929.929,0,1,0-1.858,0v2.2A.93.93,0,0,0,654.941,1675.564Z" transform="translate(-639.459 -1671.504)" fill="#fff"/>
          <path id="パス_57075" data-name="パス 57075" d="M635.541,1683.055a.929.929,0,1,0,1.314-1.315l-1.556-1.556a.929.929,0,0,0-1.314,1.315Z" transform="translate(-629.451 -1675.65)" fill="#fff"/>
          <path id="パス_57076" data-name="パス 57076" d="M672.828,1717.713a.929.929,0,0,0-1.314,1.314l1.556,1.556a.93.93,0,0,0,1.315-1.315Z" transform="translate(-647.954 -1694.153)" fill="#fff"/>
          <path id="パス_57077" data-name="パス 57077" d="M629.365,1701.14a.931.931,0,0,0-.93-.929h-2.2a.929.929,0,1,0,0,1.858h2.2A.931.931,0,0,0,629.365,1701.14Z" transform="translate(-625.305 -1685.658)" fill="#fff"/>
          <path id="パス_57078" data-name="パス 57078" d="M681.507,1700.211h-2.2a.929.929,0,1,0,0,1.859h2.2a.929.929,0,0,0,0-1.859Z" transform="translate(-651.472 -1685.658)" fill="#fff"/>
          <path id="パス_57079" data-name="パス 57079" d="M634.642,1720.856a.924.924,0,0,0,.657-.272l1.557-1.556a.932.932,0,0,0,0-1.315.931.931,0,0,0-1.315,0l-1.556,1.556a.929.929,0,0,0,.657,1.587Z" transform="translate(-629.45 -1694.153)" fill="#fff"/>
          <path id="パス_57080" data-name="パス 57080" d="M672.171,1683.328a.924.924,0,0,0,.657-.272l1.557-1.556a.929.929,0,1,0-1.314-1.315l-1.557,1.556a.929.929,0,0,0,.657,1.587Z" transform="translate(-647.954 -1675.65)" fill="#fff"/>
        </g>
      </g>
    </g>
  </g>
</svg>
